<?xml version="1.0" encoding="UTF-8" standalone="no"?>
<!DOCTYPE svg PUBLIC "-//W3C//DTD SVG 1.1//EN" "http://www.w3.org/Graphics/SVG/1.1/DTD/svg11.dtd">
<svg version="1.1" xmlns="http://www.w3.org/2000/svg" xmlns:xlink="http://www.w3.org/1999/xlink" preserveAspectRatio="xMidYMid meet" viewBox="0 0 40 40" width="40" height="40"><defs><path d="M17.58 0.05L18.24 0.12L18.89 0.21L19.52 0.33L20.16 0.47L20.78 0.64L21.39 0.83L21.99 1.04L22.58 1.28L23.15 1.53L23.72 1.81L24.27 2.11L24.81 2.43L25.34 2.78L25.85 3.14L26.34 3.51L26.83 3.91L27.29 4.33L27.74 4.76L28.17 5.21L28.59 5.67L28.99 6.16L29.36 6.65L29.72 7.16L30.07 7.69L30.39 8.23L30.69 8.78L30.97 9.35L31.22 9.92L31.46 10.51L31.67 11.11L31.86 11.72L32.03 12.34L32.17 12.98L32.29 13.61L32.38 14.26L32.45 14.92L32.49 15.58L32.5 16.25L32.49 16.92L32.45 17.58L32.38 18.24L32.29 18.89L32.17 19.52L32.03 20.16L31.86 20.78L31.67 21.39L31.46 21.99L31.22 22.58L30.97 23.15L30.69 23.72L30.39 24.27L30.07 24.81L29.74 25.32L40 35.58L35.58 40L25.32 29.74L24.81 30.07L24.27 30.39L23.72 30.69L23.15 30.97L22.58 31.22L21.99 31.46L21.39 31.67L20.78 31.86L20.16 32.03L19.52 32.17L18.89 32.29L18.24 32.38L17.58 32.45L16.92 32.49L16.25 32.5L15.58 32.49L14.92 32.45L14.26 32.38L13.61 32.29L12.98 32.17L12.34 32.03L11.72 31.86L11.11 31.67L10.51 31.46L9.92 31.22L9.35 30.97L8.78 30.69L8.23 30.39L7.69 30.07L7.16 29.72L6.65 29.36L6.16 28.99L5.67 28.59L5.21 28.17L4.76 27.74L4.33 27.29L3.91 26.83L3.51 26.34L3.14 25.85L2.78 25.34L2.43 24.81L2.11 24.27L1.81 23.72L1.53 23.15L1.28 22.58L1.04 21.99L0.83 21.39L0.64 20.78L0.47 20.16L0.33 19.52L0.21 18.89L0.12 18.24L0.05 17.58L0.01 16.92L0 16.25L0.01 15.58L0.05 14.92L0.12 14.26L0.21 13.61L0.33 12.98L0.47 12.34L0.64 11.72L0.83 11.11L1.04 10.51L1.28 9.92L1.53 9.35L1.81 8.78L2.11 8.23L2.43 7.69L2.78 7.16L3.14 6.65L3.51 6.16L3.91 5.67L4.33 5.21L4.76 4.76L5.21 4.33L5.67 3.91L6.16 3.51L6.65 3.14L7.16 2.78L7.69 2.43L8.23 2.11L8.78 1.81L9.35 1.53L9.92 1.28L10.51 1.04L11.11 0.83L11.72 0.64L12.34 0.47L12.98 0.33L13.61 0.21L14.26 0.12L14.92 0.05L15.58 0.01L16.25 0L16.92 0.01L17.58 0.05ZM15.43 6.26L15.02 6.3L14.62 6.35L14.23 6.43L13.84 6.51L13.46 6.62L13.08 6.73L12.71 6.87L12.35 7.01L11.99 7.17L11.64 7.34L11.3 7.53L10.97 7.73L10.64 7.94L10.33 8.16L10.02 8.39L9.72 8.64L9.44 8.89L9.16 9.16L8.89 9.44L8.64 9.72L8.39 10.02L8.16 10.33L7.94 10.64L7.73 10.97L7.53 11.3L7.34 11.64L7.17 11.99L7.01 12.35L6.87 12.71L6.73 13.08L6.62 13.46L6.51 13.84L6.43 14.23L6.35 14.62L6.3 15.02L6.26 15.43L6.23 15.84L6.22 16.25L6.23 16.66L6.26 17.07L6.3 17.48L6.35 17.88L6.43 18.27L6.51 18.66L6.62 19.04L6.73 19.42L6.87 19.79L7.01 20.15L7.17 20.51L7.34 20.86L7.53 21.2L7.73 21.53L7.94 21.86L8.16 22.17L8.39 22.48L8.64 22.78L8.89 23.06L9.16 23.34L9.44 23.61L9.72 23.86L10.02 24.11L10.33 24.34L10.64 24.56L10.97 24.77L11.3 24.97L11.64 25.16L11.99 25.33L12.35 25.49L12.71 25.63L13.08 25.77L13.46 25.88L13.84 25.99L14.23 26.07L14.62 26.15L15.02 26.2L15.43 26.24L15.84 26.27L16.25 26.28L16.66 26.27L17.07 26.24L17.48 26.2L17.88 26.15L18.27 26.07L18.66 25.99L19.04 25.88L19.42 25.77L19.79 25.63L20.15 25.49L20.51 25.33L20.86 25.16L21.2 24.97L21.53 24.77L21.86 24.56L22.17 24.34L22.48 24.11L22.78 23.86L23.06 23.61L23.34 23.34L23.61 23.06L23.86 22.78L24.11 22.48L24.34 22.17L24.56 21.86L24.77 21.53L24.97 21.2L25.16 20.86L25.33 20.51L25.49 20.15L25.63 19.79L25.77 19.42L25.88 19.04L25.99 18.66L26.07 18.27L26.15 17.88L26.2 17.48L26.24 17.07L26.27 16.66L26.28 16.25L26.27 15.84L26.24 15.43L26.2 15.02L26.15 14.62L26.07 14.23L25.99 13.84L25.88 13.46L25.77 13.08L25.63 12.71L25.49 12.35L25.33 11.99L25.16 11.64L24.97 11.3L24.77 10.97L24.56 10.64L24.34 10.33L24.11 10.02L23.86 9.72L23.61 9.44L23.34 9.16L23.06 8.89L22.78 8.64L22.48 8.39L22.17 8.16L21.86 7.94L21.53 7.73L21.2 7.53L20.86 7.34L20.51 7.17L20.15 7.01L19.79 6.87L19.42 6.73L19.04 6.62L18.66 6.51L18.27 6.43L17.88 6.35L17.48 6.3L17.07 6.26L16.66 6.23L16.25 6.22L15.84 6.23L15.43 6.26Z" id="j3VVZRteU"></path></defs><g><g><g><use xlink:href="#j3VVZRteU" opacity="1" fill="#fff" fill-opacity="1"></use></g></g></g></svg>
